<?xml version="1.0" encoding="UTF-8"?>
<svg version="1.1" xmlns="http://www.w3.org/2000/svg" width="476" height="207">
<path d="M0 0 C17.16055498 -0.02346928 34.32110488 -0.04104755 51.48167229 -0.05181217 C59.45149144 -0.05694554 67.42130057 -0.06393113 75.39111328 -0.07543945 C82.34607263 -0.08547746 89.30102471 -0.09187488 96.2559911 -0.09408849 C99.93087168 -0.09538028 103.60573147 -0.09836718 107.28060532 -0.10573006 C148.76296847 -0.18552789 148.76296847 -0.18552789 161.9375 2.625 C162.75468506 2.79467285 163.57187012 2.9643457 164.41381836 3.13916016 C189.97746606 8.7992796 212.29030189 21.1900992 226.85546875 43.4609375 C232.15353419 51.9559879 236.4310627 61.06339709 238 71 C238.66 71 239.32 71 240 71 C240.12181641 69.79923828 240.12181641 69.79923828 240.24609375 68.57421875 C241.21878461 63.96275692 243.03078481 60.04677915 245.0625 55.8125 C245.66868164 54.54611694 245.66868164 54.54611694 246.28710938 53.25415039 C249.54815031 46.60895018 253.24141091 40.69001834 258 35 C259.02867187 33.72962891 259.02867187 33.72962891 260.078125 32.43359375 C277.98737987 11.33546076 304.22836143 2.53949684 331 0 C338.6111489 -0.45568215 346.23034887 -0.37708756 353.8515625 -0.328125 C356.00540025 -0.32504881 358.15924002 -0.32318689 360.31307983 -0.32244873 C364.80922194 -0.31788282 369.30518129 -0.3036267 373.80126953 -0.28125 C379.42201011 -0.25334405 385.04260726 -0.24214606 390.66341019 -0.23744965 C419.12033968 -0.21113434 447.55451327 0.19824784 476 1 C476.67539006 36.9146605 476.67539006 36.9146605 472 53 C471.63777344 54.25167969 471.27554687 55.50335938 470.90234375 56.79296875 C466.6414652 69.80670291 460.17224833 81.81063107 451 92 C450.42121094 92.67160156 449.84242188 93.34320313 449.24609375 94.03515625 C434.00525734 110.59269559 410.71849239 120.46304812 388.53393555 121.54272461 C387.70173083 121.58454581 386.86952612 121.62636702 386.01210308 121.66945553 C376.16395642 122.13122564 366.31426119 122.22878442 356.45703125 122.31640625 C354.4663609 122.33704846 352.4756942 122.35804639 350.48503113 122.37937927 C345.31498228 122.43385155 340.144899 122.48358187 334.97479248 122.53222656 C329.67131588 122.58299811 324.36788758 122.63838977 319.06445312 122.69335938 C308.70967695 122.80002143 298.35485833 122.90165957 288 123 C288.2938508 124.43605903 288.5946898 125.87068919 288.8984375 127.3046875 C289.06520996 128.10374512 289.23198242 128.90280273 289.40380859 129.72607422 C291.32263706 137.04465259 297.76337785 142.22854301 303.875 146.2265625 C316.10009831 152.89942866 329.53591807 152.45498333 343.03125 152.4765625 C345.0737 152.49091177 347.11614049 152.50667564 349.15856934 152.52377319 C354.51670424 152.5654286 359.87478034 152.59053439 365.23303223 152.61126709 C373.77698931 152.64718217 382.3207993 152.70900408 390.86460876 152.76975632 C393.8131002 152.78847125 396.76155306 152.800471 399.71008301 152.81118774 C408.77349099 152.8546118 417.81886224 153.0064954 426.87304688 153.43505859 C427.6738694 153.47139719 428.47469193 153.50773579 429.2997818 153.54517555 C441.55558187 154.18979396 455.37842363 155.79001165 464.3125 165.0625 C470.63441697 173.3255126 474.00193621 184.93183441 476 195 C475.53759766 197.18945312 475.53759766 197.18945312 475 199 C456.68326952 199.04693522 438.36655486 199.08209347 420.04977703 199.10362434 C411.54301112 199.1138918 403.03628279 199.12786431 394.52954102 199.15087891 C387.10615839 199.17095277 379.68280301 199.18374926 372.25939399 199.18817699 C368.33685764 199.19076094 364.41439917 199.19673707 360.49188805 199.21146011 C321.02822716 199.35363231 287.26887946 196.25469901 257.58203125 167.60546875 C247.95321714 157.88925239 241.56877223 145.23578103 237.69140625 132.1953125 C237.20044311 130.0464322 237.20044311 130.0464322 236 129 C235.69449219 129.94617188 235.38898438 130.89234375 235.07421875 131.8671875 C232.31554067 139.98436674 228.93881393 147.31652093 224.4375 154.625 C223.97883545 155.36991699 223.5201709 156.11483398 223.04760742 156.88232422 C220.31525442 161.20264039 217.47043502 165.23887896 214 169 C213.34 169 212.68 169 212 169 C211.67 169.99 211.34 170.98 211 172 C192.30909449 189.38026275 169.57698935 197.93220839 144.24707031 198.61889648 C142.43007566 198.67540076 142.43007566 198.67540076 140.57637405 198.73304653 C127.08970158 199.11518946 113.60307389 199.13010949 100.11211681 199.10139394 C96.57151186 199.09498613 93.03090527 199.09454325 89.49029541 199.09336853 C82.83655945 199.09030509 76.18284063 199.08216171 69.5291121 199.07201904 C61.93247913 199.06069947 54.33584519 199.05530825 46.73920584 199.05032361 C31.15946075 199.03997266 15.57973262 199.02247388 0 199 C-0.10072078 194.18438465 -0.17231603 189.36941426 -0.21972656 184.55297852 C-0.23954021 182.92298677 -0.26659923 181.29306304 -0.30175781 179.66333008 C-0.93526847 149.48772703 10.06668012 122.68246885 30.875 100.8125 C49.7705908 82.58775858 72.94152376 77.79808676 98.38671875 77.5859375 C99.85611413 77.56711074 101.32550002 77.54753015 102.7948761 77.5272522 C106.64991083 77.47631725 110.50498308 77.43661793 114.36016846 77.39910889 C117.40822114 77.36753403 120.45613843 77.32775186 123.50408745 77.28753281 C144.66962179 77.0091426 165.83286731 76.95050227 187 77 C186.84853516 75.72713135 186.69707031 74.4542627 186.54101562 73.14282227 C186.45581665 72.42683365 186.37061768 71.71084503 186.28283691 70.97315979 C185.42072007 64.95875992 182.39389894 61.00515277 177.75 57.25 C163.99230422 47.42307445 149.96678701 46.56171444 133.54970169 46.74394035 C130.46742336 46.77813859 127.38551327 46.79348715 124.30307007 46.80458069 C118.85059525 46.82724123 113.39838189 46.86619282 107.94604492 46.9105835 C99.25923922 46.98098858 90.57246346 47.03666411 81.88544846 47.07293892 C78.89317153 47.08927536 75.90124577 47.11885903 72.90908813 47.14964294 C63.07283959 47.21962925 53.34483723 46.93839181 43.54052734 46.10375977 C42.59375437 46.02355308 41.64698139 45.94334639 40.67151833 45.86070919 C28.60511781 44.72536853 18.30895125 41.98062667 9.9453125 32.7265625 C6.37542466 27.72298476 4.89635254 21.7965176 3 16 C2.67515625 15.03449219 2.3503125 14.06898437 2.015625 13.07421875 C0.54088568 8.49000549 -0.05092503 4.84574385 0 0 Z M59.796875 138.6875 C54.80852277 144.72530886 54.80852277 144.72530886 53 152 C65.71798364 152.06968369 78.43592143 152.12290442 91.1540575 152.15543652 C97.06037479 152.17105472 102.96656092 152.19222262 108.87280273 152.22631836 C114.57865872 152.25904906 120.28438898 152.27688191 125.99033165 152.28463173 C128.16109888 152.29015068 130.33185968 152.30092754 132.50257301 152.31719017 C150.20935638 152.44450291 165.40976724 151.46638298 178.9375 138.625 C182.64548718 134.68401542 185.07995727 131.06193084 187 126 C186.67 125.01 186.34 124.02 186 123 C172.85632227 122.93038992 159.71268863 122.87713272 146.56886387 122.84456348 C140.46519507 122.82892934 134.36165269 122.80773196 128.25805664 122.77368164 C122.36417847 122.74100826 116.47042166 122.72313006 110.57645988 122.71536827 C108.33147205 122.70983911 106.08649061 122.69904205 103.84155464 122.68280983 C100.68922869 122.66092982 97.53739983 122.65803753 94.38500977 122.65942383 C93.46359192 122.648638 92.54217407 122.63785217 91.59283447 122.6267395 C78.18597378 122.69024605 68.33775814 128.57509436 59.796875 138.6875 Z " fill="#363534" transform="translate(0,8)"/>
<path d="M0 0 C1.00549393 -0.00029205 2.01098785 -0.00058411 3.04695129 -0.00088501 C6.35837543 0.00050427 9.66957237 0.01604673 12.98095703 0.03173828 C15.28166582 0.03546983 17.58237621 0.03831614 19.88308716 0.04031372 C25.92965099 0.04793894 31.97611828 0.06757798 38.02264404 0.08972168 C44.19623509 0.11020399 50.36984178 0.11932054 56.54345703 0.12939453 C68.65027021 0.15082484 80.75701183 0.18494746 92.86376953 0.22705078 C92.15283203 5.98486328 92.15283203 5.98486328 89.55126953 8.16455078 C88.66439453 8.84517578 87.77751953 9.52580078 86.86376953 10.22705078 C86.32751953 11.27892578 85.79126953 12.33080078 85.23876953 13.41455078 C81.61577103 20.26127857 74.00675558 25.68770623 66.95988274 28.60714149 C62.85412314 29.82138818 58.67850009 29.61552174 54.43041992 29.56762695 C53.40527283 29.56806503 52.38012573 29.56850311 51.32391357 29.56895447 C47.95288709 29.56687307 44.58236483 29.54357214 41.21142578 29.52001953 C38.86730725 29.51442128 36.52318519 29.51015227 34.17906189 29.50715637 C28.02231075 29.4957257 21.86577338 29.46627355 15.70910645 29.43304443 C9.42149751 29.40230537 3.13385389 29.38864282 -3.15380859 29.37353516 C-15.48137625 29.34140236 -27.80878555 29.29022731 -40.13623047 29.22705078 C-40.26595008 22.24012514 -38.2464445 17.82530372 -33.66748047 12.52783203 C-24.38760143 3.86206263 -12.41015784 -0.09477507 0 0 Z " fill="#F18531" transform="translate(330.13623046875,54.77294921875)"/>
<path d="M0 0 C1.00549393 -0.00029205 2.01098785 -0.00058411 3.04695129 -0.00088501 C6.35837543 0.00050427 9.66957237 0.01604673 12.98095703 0.03173828 C15.28166582 0.03546983 17.58237621 0.03831614 19.88308716 0.04031372 C25.92965099 0.04793894 31.97611828 0.06757798 38.02264404 0.08972168 C44.19623509 0.11020399 50.36984178 0.11932054 56.54345703 0.12939453 C68.65027021 0.15082484 80.75701183 0.18494746 92.86376953 0.22705078 C92.15283203 5.98486328 92.15283203 5.98486328 89.55126953 8.16455078 C88.66439453 8.84517578 87.77751953 9.52580078 86.86376953 10.22705078 C86.32751953 11.27892578 85.79126953 12.33080078 85.23876953 13.41455078 C81.61577103 20.26127857 74.00675558 25.68770623 66.95988274 28.60714149 C62.85412314 29.82138818 58.67850009 29.61552174 54.43041992 29.56762695 C53.40527283 29.56806503 52.38012573 29.56850311 51.32391357 29.56895447 C47.95288709 29.56687307 44.58236483 29.54357214 41.21142578 29.52001953 C38.86730725 29.51442128 36.52318519 29.51015227 34.17906189 29.50715637 C28.02231075 29.4957257 21.86577338 29.46627355 15.70910645 29.43304443 C9.42149751 29.40230537 3.13385389 29.38864282 -3.15380859 29.37353516 C-15.48137625 29.34140236 -27.80878555 29.29022731 -40.13623047 29.22705078 C-40.13623047 28.89705078 -40.13623047 28.56705078 -40.13623047 28.22705078 C-38.23942032 28.2149205 -38.23942032 28.2149205 -36.30429077 28.20254517 C-24.38599231 28.12505362 -12.46780758 28.03730652 -0.54965782 27.9395237 C5.57754884 27.88958232 11.70473845 27.84325189 17.83203125 27.80517578 C23.74542337 27.768296 29.658672 27.72192835 35.57194138 27.66898727 C37.827737 27.65045772 40.08356336 27.63534445 42.33940506 27.62370682 C45.49953141 27.60682004 48.6593302 27.57777846 51.81933594 27.54589844 C52.75153961 27.54373825 53.68374329 27.54157806 54.64419556 27.53935242 C59.38127177 27.47832209 63.4993172 27.29972127 67.86376953 25.22705078 C69.19296979 22.32280422 69.19296979 22.32280422 69.86376953 19.22705078 C72.30840427 15.56009867 73.74982484 15.46123419 77.86376953 14.22705078 C81.71686622 12.79590058 83.06781836 10.90875069 84.86376953 7.22705078 C84.86376953 6.23705078 84.86376953 5.24705078 84.86376953 4.22705078 C79.63407041 3.36461673 74.59685602 3.06862678 69.30151367 3.05004883 C68.47453476 3.04347763 67.64755585 3.03690643 66.79551697 3.03013611 C64.07998544 3.01054939 61.36450868 2.99877658 58.64892578 2.98876953 C57.25033231 2.98265624 57.25033231 2.98265624 55.82348442 2.97641945 C50.89298606 2.95562624 45.96251502 2.9412926 41.03198242 2.93188477 C35.95351089 2.92080328 30.8754754 2.88636395 25.79715824 2.84671307 C21.87738755 2.82052739 17.95772087 2.81219145 14.03787041 2.80860329 C12.16605097 2.80374649 10.2942359 2.79215847 8.42250252 2.77356529 C5.79979125 2.74912012 3.17821111 2.75014784 0.55541992 2.75708008 C-0.20898407 2.74427002 -0.97338806 2.73145996 -1.76095581 2.71826172 C-6.71419313 2.76573508 -10.03581997 3.83415256 -14.3011713 6.36857319 C-16.13623047 7.22705078 -16.13623047 7.22705078 -20.13623047 7.22705078 C-20.13623047 7.88705078 -20.13623047 8.54705078 -20.13623047 9.22705078 C-20.71630859 9.38560547 -21.29638672 9.54416016 -21.89404297 9.70751953 C-27.41181734 11.35556765 -30.957768 13.26286844 -35.13623047 17.22705078 C-35.13623047 14.22705078 -35.13623047 14.22705078 -32.38623047 11.41455078 C-22.83668889 3.61543434 -12.14161938 -0.09272427 0 0 Z " fill="#E28B49" transform="translate(330.13623046875,54.77294921875)"/>
<path d="M0 0 C1.65 0 3.3 0 5 0 C2.61848786 2.63219763 0.03696359 4.19228358 -3 6 C-7.73974077 9.1212927 -10.09198256 12.743599 -12 18 C-12.3500063 19.99714964 -12.68501786 21.99702787 -13 24 C0.53499662 23.93870949 14.06980168 23.86154563 27.60459042 23.76428509 C33.88978219 23.71961508 40.17490963 23.68035129 46.46020508 23.65356445 C52.52926867 23.62749823 58.59808431 23.58707172 64.66699409 23.53681374 C66.97891715 23.52016758 69.29088307 23.50863933 71.60285759 23.50238609 C74.84870081 23.49272077 78.09391287 23.46463133 81.33959961 23.43237305 C82.7638047 23.43452568 82.7638047 23.43452568 84.21678162 23.4367218 C90.30735997 23.35148 95.34729204 22.2733579 101 20 C101 20.66 101 21.32 101 22 C100.34 22 99.68 22 99 22 C99 22.66 99 23.32 99 24 C98.21625 24.0825 97.4325 24.165 96.625 24.25 C95.75875 24.4975 94.8925 24.745 94 25 C93.34 26.32 92.68 27.64 92 29 C88.37 29 84.74 29 81 29 C81 28.34 81 27.68 81 27 C79.7995253 26.98969254 78.5990506 26.97938507 77.36219788 26.96876526 C66.07517336 26.87121115 54.78820619 26.76849463 43.50127506 26.66066074 C37.69789131 26.6053836 31.89450256 26.55195608 26.09106445 26.50268555 C20.49544668 26.45511249 14.89989234 26.40277252 9.3043499 26.34705925 C7.16442878 26.3266036 5.02449025 26.30789596 2.88453865 26.29092598 C-0.10169681 26.26695277 -3.08781117 26.23688892 -6.07397461 26.20532227 C-6.96805023 26.1995668 -7.86212585 26.19381134 -8.78329468 26.18788147 C-14.88594784 26.11405216 -14.88594784 26.11405216 -16 25 C-16.07205511 23.31391034 -16.08386068 21.62499341 -16.0625 19.9375 C-16.05347656 19.01839844 -16.04445313 18.09929687 -16.03515625 17.15234375 C-16.02355469 16.44207031 -16.01195312 15.73179688 -16 15 C-15.01 14.67 -14.02 14.34 -13 14 C-12.731875 13.0925 -12.46375 12.185 -12.1875 11.25 C-10.65539712 7.05687633 -8.61215373 5.54975557 -5 3 C-2.125 1.6875 -2.125 1.6875 0 1 C0 0.67 0 0.34 0 0 Z " fill="#704525" transform="translate(303,60)"/>
<path d="M0 0 C-3.74412843 3.39583741 -5.9080082 5.2725726 -11 6 C-11.33 6.66 -11.66 7.32 -12 8 C-12.721875 8.391875 -13.44375 8.78375 -14.1875 9.1875 C-18.68204795 12.08398646 -22.29660807 15.88982421 -24 21 C-23.16380127 20.98747192 -22.32760254 20.97494385 -21.46606445 20.96203613 C-13.46798202 20.84252829 -5.46987589 20.72477543 2.52825928 20.60884857 C6.63718061 20.54923489 10.74609089 20.48901283 14.85498047 20.42724609 C18.82789965 20.36754617 22.80084211 20.3096722 26.77380371 20.25286865 C28.34111476 20.23012511 29.90841647 20.20672842 31.47570801 20.18267822 C39.13836604 20.06544785 46.79346755 19.97325913 54.45703125 20.07421875 C55.5661084 20.08682739 56.67518555 20.09943604 57.81787109 20.11242676 C59.81973991 20.14054817 61.82149385 20.18134561 63.82275391 20.23815918 C69.04416724 20.31173759 72.43448975 19.84004745 77 17 C77.99 16.505 77.99 16.505 79 16 C78.875 17.8125 78.875 17.8125 78 20 C72.7386298 23.50214399 68.0405681 23.41098115 61.95556641 23.34057617 C60.95982605 23.34101425 59.96408569 23.34145233 58.93817139 23.34190369 C55.65909973 23.33981987 52.38054444 23.31650754 49.1015625 23.29296875 C46.82327555 23.28737136 44.54498497 23.28310194 42.26669312 23.28010559 C36.27925595 23.26866814 30.29203817 23.23921016 24.3046875 23.20599365 C18.19143644 23.17526921 12.07814982 23.16159516 5.96484375 23.14648438 C-6.02353372 23.11433963 -18.0117486 23.06315636 -30 23 C-29.36299795 17.20533623 -28.14439804 14.06599051 -24 10 C-23.071875 9.071875 -22.14375 8.14375 -21.1875 7.1875 C-17.19916816 4.45040952 -14.76899707 4.24667226 -10 4 C-10 3.34 -10 2.68 -10 2 C-8.71211992 1.46987262 -7.41953322 0.9511671 -6.125 0.4375 C-5.40570313 0.14746094 -4.68640625 -0.14257812 -3.9453125 -0.44140625 C-2 -1 -2 -1 0 0 Z " fill="#E18845" transform="translate(320,60)"/>
<path d="M0 0 C17.16055498 -0.02346928 34.32110488 -0.04104755 51.48167229 -0.05181217 C59.45149144 -0.05694554 67.42130057 -0.06393113 75.39111328 -0.07543945 C82.34607263 -0.08547746 89.30102471 -0.09187488 96.2559911 -0.09408849 C99.93087168 -0.09538028 103.60573147 -0.09836718 107.28060532 -0.10573006 C148.77199433 -0.18549296 148.77199433 -0.18549296 162.75 2.9375 C163.57242188 3.10701172 164.39484375 3.27652344 165.2421875 3.45117188 C169.60517777 4.37357255 173.79577693 5.4878359 178 7 C174.8334862 8.00863334 172.68068352 7.94933707 169.4453125 7.2578125 C168.58292969 7.07863281 167.72054687 6.89945313 166.83203125 6.71484375 C165.93871094 6.52019531 165.04539063 6.32554688 164.125 6.125 C162.35693457 5.75182753 160.58870899 5.37941295 158.8203125 5.0078125 C158.03930176 4.83910645 157.25829102 4.67040039 156.45361328 4.49658203 C151.50016013 3.49406226 146.79724342 2.87227255 141.73574829 2.84178162 C140.49903381 2.8319928 139.26231934 2.82220398 137.98812866 2.81211853 C136.6309208 2.80621558 135.27371253 2.80040505 133.91650391 2.79467773 C132.47721074 2.78509025 131.03792033 2.77507966 129.59863281 2.76467896 C125.7024359 2.73771809 121.80622698 2.71666098 117.90998888 2.69667697 C113.834044 2.67476282 109.75813575 2.64740076 105.68222046 2.62062073 C97.96884267 2.5707671 90.25544447 2.52580117 82.54202688 2.48259836 C73.75847566 2.43316323 64.97496121 2.37826843 56.19144559 2.32291877 C38.12766455 2.2092113 20.06384879 2.10234792 2 2 C2.33 2.99 2.66 3.98 3 5 C3.12781786 7.67394964 3.04391871 10.32095857 3 13 C0.89172945 9.83759418 0.66182535 8.49342531 0.375 4.8125 C0.30023437 3.91144531 0.22546875 3.01039062 0.1484375 2.08203125 C0.09945313 1.39496094 0.05046875 0.70789062 0 0 Z " fill="#777676" transform="translate(0,8)"/>
<path d="M0 0 C2.19816292 0.00560761 4.39632964 0.00987219 6.59449768 0.01286316 C12.33027829 0.02422027 18.06582453 0.05360709 23.80151367 0.0869751 C29.67428418 0.11787475 35.5470932 0.13141068 41.41992188 0.14648438 C52.90635196 0.17848696 64.39260948 0.2295705 75.87890625 0.29296875 C75.91841555 13.84465913 75.91841555 13.84465913 72.10546875 18.421875 C66.81122948 23.29296875 66.81122948 23.29296875 61.87890625 23.29296875 C61.21890625 24.61296875 60.55890625 25.93296875 59.87890625 27.29296875 C58.55890625 26.96296875 57.23890625 26.63296875 55.87890625 26.29296875 C56.64074219 25.69162109 56.64074219 25.69162109 57.41796875 25.078125 C62.06984081 21.23641043 65.38001424 17.417039 68.5625 12.30078125 C70.07565486 9.99288333 71.93424685 8.23762815 73.87890625 6.29296875 C74.49907118 4.2349968 74.49907118 4.2349968 74.87890625 2.29296875 C61.65645504 2.33111267 48.43428506 2.39060114 35.21205521 2.47687149 C29.0715355 2.51627553 22.9311577 2.54849881 16.79052734 2.56396484 C10.85755664 2.57917783 4.92497623 2.61370613 -1.00782013 2.66127777 C-3.26422979 2.67604369 -5.52069519 2.684007 -7.77715302 2.6848526 C-24.39071575 2.50754522 -24.39071575 2.50754522 -40.12109375 7.29296875 C-39.50733948 5.40119934 -39.50733948 5.40119934 -38.12109375 3.29296875 C-26.32339008 -1.29807206 -12.40093189 -0.09384316 0 0 Z " fill="#6D4120" transform="translate(348.12109375,52.70703125)"/>
<path d="M0 0 C2.69378789 2.69378789 3.13672837 5.22574981 4.1875 8.875 C4.73470703 10.72738281 4.73470703 10.72738281 5.29296875 12.6171875 C5.96695975 15.84191794 5.91419637 16.99533305 5 20 C-13.42036273 20.02342035 -31.84072157 20.04102389 -50.261096 20.05181217 C-58.81510098 20.05695578 -67.36909668 20.06396139 -75.9230957 20.07543945 C-83.3837762 20.08544564 -90.84444996 20.09186749 -98.30513698 20.09408849 C-102.25093056 20.09538557 -106.19670491 20.09840731 -110.14249229 20.10573006 C-113.86639984 20.11258417 -117.59028047 20.11459812 -121.31419373 20.11310768 C-123.31198981 20.1135083 -125.30978304 20.11885406 -127.30757141 20.12442017 C-135.24996179 20.11547891 -143.09098932 19.7288669 -151 19 C-151 18.67 -151 18.34 -151 18 C-100.18 18 -49.36 18 3 18 C2.01 12.06 2.01 12.06 1 6 C0.67 4.02 0.34 2.04 0 0 Z " fill="#636363" transform="translate(470,187)"/>
<path d="M0 0 C2.7787458 0.65267176 5.39448067 0.67829275 8.24882507 0.72720337 C9.4807811 0.75037628 10.71273712 0.77354919 11.98202515 0.79742432 C13.32461652 0.8177432 14.6672121 0.8377863 16.0098114 0.85757446 C17.39501345 0.8807178 18.78021138 0.90410833 20.16540527 0.92773438 C23.06963676 0.97614402 25.97389676 1.02106501 28.8782196 1.06362915 C32.57891331 1.11820897 36.27937595 1.18212046 39.97986889 1.24880409 C42.84276432 1.29921105 45.70572645 1.34419354 48.56873512 1.38764572 C50.58985245 1.4193688 52.61089289 1.45587635 54.63192749 1.49249268 C61.23625068 1.58178027 67.61996505 1.52123889 74.15434265 0.50601196 C74.48434265 0.17601196 74.81434265 -0.15398804 75.15434265 -0.49398804 C76.8205138 -0.53462636 78.4882236 -0.53670904 80.15434265 -0.49398804 C80.15434265 0.16601196 80.15434265 0.82601196 80.15434265 1.50601196 C82.79434265 1.83601196 85.43434265 2.16601196 88.15434265 2.50601196 C88.15434265 3.16601196 88.15434265 3.82601196 88.15434265 4.50601196 C86.97242844 4.49935013 85.79051422 4.49268829 84.57278442 4.48582458 C73.37850025 4.42473854 62.18425036 4.37990815 50.98983669 4.35057545 C45.23608841 4.33498777 39.48247578 4.31387687 33.72880554 4.2796936 C28.16557564 4.24685246 22.6024754 4.22910722 17.03915596 4.22138023 C14.92751592 4.21588083 12.81588214 4.20514326 10.70429802 4.18882179 C-6.81474271 3.87228701 -6.81474271 3.87228701 -23.84565735 7.50601196 C-24.83565735 8.99101196 -24.83565735 8.99101196 -25.84565735 10.50601196 C-28.01753235 11.49819946 -28.01753235 11.49819946 -30.59565735 12.38101196 C-36.22300347 14.51972877 -40.46927577 16.69068601 -43.22065735 22.31851196 C-43.42690735 23.04038696 -43.63315735 23.76226196 -43.84565735 24.50601196 C-44.50565735 24.50601196 -45.16565735 24.50601196 -45.84565735 24.50601196 C-44.55806116 18.22898055 -40.51793808 13.69343338 -35.84565735 9.50601196 C-33.65034485 8.86929321 -33.65034485 8.86929321 -31.84565735 8.50601196 C-31.51565735 7.84601196 -31.18565735 7.18601196 -30.84565735 6.50601196 C-28.0499778 5.69967913 -25.30677785 5.00662678 -22.47065735 4.38101196 C-21.68948547 4.19925415 -20.9083136 4.01749634 -20.10346985 3.83023071 C-16.9156259 3.10423201 -14.13030691 2.50601196 -10.84565735 2.50601196 C-10.84565735 1.84601196 -10.84565735 1.18601196 -10.84565735 0.50601196 C-7.51715754 -1.15823794 -3.56962983 -0.95540726 0 0 Z " fill="#3E2E20" transform="translate(333.8456573486328,49.493988037109375)"/>
<path d="M0 0 C11.91065935 -0.0233395 23.82131311 -0.04102385 35.73199081 -0.05181217 C41.2646949 -0.05699429 46.79738315 -0.06400529 52.33007812 -0.07543945 C57.68583579 -0.0864366 63.04157839 -0.09231184 68.3973465 -0.09487724 C70.42389411 -0.09670158 72.45044106 -0.10026262 74.47698212 -0.10573006 C84.61433258 -0.13195088 94.73225182 -0.05813522 104.86035156 0.40844727 C106.05132257 0.45966059 106.05132257 0.45966059 107.26635361 0.51190853 C114.68230245 0.90015254 121.78689961 2.26229854 129 4 C129 4.33 129 4.66 129 5 C125.93722733 4.85873374 122.87486458 4.71215604 119.8125 4.5625 C118.51602539 4.50352539 118.51602539 4.50352539 117.19335938 4.44335938 C115.93168945 4.38051758 115.93168945 4.38051758 114.64453125 4.31640625 C113.87471924 4.27974854 113.10490723 4.24309082 112.31176758 4.20532227 C110 4 110 4 107.9876709 3.5 C103.62384396 2.76969417 99.30313817 2.82131529 94.88549805 2.79467773 C93.36284584 2.77982834 93.36284584 2.77982834 91.80943298 2.76467896 C88.46021849 2.73313718 85.11098981 2.70833542 81.76171875 2.68359375 C79.43715551 2.66301791 77.11259596 2.64202127 74.78804016 2.62062073 C68.6741332 2.56546521 62.56019284 2.51602715 56.44622803 2.46777344 C50.20565829 2.41751082 43.96513697 2.3618496 37.72460938 2.30664062 C25.48311429 2.19913878 13.24157715 2.09767609 1 2 C0.67 1.34 0.34 0.68 0 0 Z " fill="#757575" transform="translate(322,161)"/>
<path d="M0 0 C2.31 0.33 4.62 0.66 7 1 C7 1.66 7 2.32 7 3 C8.093125 3.12375 9.18625 3.2475 10.3125 3.375 C13.60937766 3.77671387 16.82629882 4.35884634 20.08006287 5.02111816 C25.89316987 6.08510115 31.50862706 6.2929282 37.40649414 6.28710938 C39.0280542 6.29735893 39.0280542 6.29735893 40.68237305 6.30781555 C43.00777706 6.32131151 45.33320996 6.3304235 47.65864754 6.33552551 C51.33572198 6.34386468 55.01255403 6.36441051 58.68955994 6.38806152 C67.80914167 6.44425582 76.92878166 6.47979718 86.04846191 6.51568604 C93.78116987 6.54686918 101.51375638 6.58597484 109.2463665 6.63594055 C112.87487758 6.65605444 116.50329592 6.66433345 120.1318512 6.67224121 C122.34058987 6.6852041 124.54932537 6.69872299 126.75805664 6.71289062 C127.77151657 6.71190872 128.7849765 6.71092682 129.82914734 6.70991516 C131.21038284 6.72232491 131.21038284 6.72232491 132.61952209 6.73498535 C133.42194367 6.73791847 134.22436525 6.74085159 135.05110264 6.7438736 C137 7 137 7 139 9 C126.35886177 9.04671761 113.7177447 9.08206669 101.07653713 9.10362434 C95.20423226 9.11398044 89.33198724 9.12798667 83.4597168 9.15087891 C77.77326447 9.17290338 72.08686903 9.18462973 66.40037727 9.18975449 C64.25070362 9.19339794 62.10103243 9.20050905 59.95138359 9.21146011 C48.74945746 9.2661612 37.64395829 9.05132605 26.47680664 8.10888672 C25.53768401 8.03065233 24.59856138 7.95241795 23.63098049 7.87181282 C5.25757838 6.1513667 5.25757838 6.1513667 0 0 Z " fill="#8D8C8B" transform="translate(17,46)"/>
<path d="M0 0 C33.33 0 66.66 0 101 0 C101 0.33 101 0.66 101 1 C100.32453125 1.06058594 99.6490625 1.12117188 98.953125 1.18359375 C98.06109375 1.26738281 97.1690625 1.35117188 96.25 1.4375 C95.36828125 1.51871094 94.4865625 1.59992188 93.578125 1.68359375 C91.08830357 1.92879429 91.08830357 1.92879429 89.0729866 2.51463223 C85.64116207 3.31815746 82.15547095 3.07916735 78.65136719 3.02172852 C77.39228043 3.0073172 77.39228043 3.0073172 76.10775757 2.99261475 C73.33737676 2.95967281 70.56715602 2.91932215 67.796875 2.87890625 C65.8744564 2.85460044 63.9520319 2.83075711 62.02960205 2.80735779 C56.97266922 2.74456275 51.91584098 2.67548308 46.85900879 2.60510254 C41.69772093 2.53437776 36.53635898 2.46958559 31.375 2.40429688 C21.24991858 2.27534356 11.12493772 2.13975204 1 2 C0.67 1.34 0.34 0.68 0 0 Z " fill="#3F2A1D" transform="translate(293,86)"/>
<path d="M0 0 C1.00549393 -0.00029205 2.01098785 -0.00058411 3.04695129 -0.00088501 C6.35837543 0.00050427 9.66957237 0.01604673 12.98095703 0.03173828 C15.28166582 0.03546983 17.58237621 0.03831614 19.88308716 0.04031372 C25.92965099 0.04793894 31.97611828 0.06757798 38.02264404 0.08972168 C44.19623509 0.11020399 50.36984178 0.11932054 56.54345703 0.12939453 C68.65027021 0.15082484 80.75701183 0.18494746 92.86376953 0.22705078 C92.55126953 3.10205078 92.55126953 3.10205078 91.86376953 6.22705078 C90.87376953 6.88705078 89.88376953 7.54705078 88.86376953 8.22705078 C89.52376953 5.91705078 90.18376953 3.60705078 90.86376953 1.22705078 C58.19376953 1.22705078 25.52376953 1.22705078 -8.13623047 1.22705078 C-8.13623047 1.88705078 -8.13623047 2.54705078 -8.13623047 3.22705078 C-9.3808383 3.90373077 -10.63219943 4.56799797 -11.88623047 5.22705078 C-12.58232422 5.59830078 -13.27841797 5.96955078 -13.99560547 6.35205078 C-16.13623047 7.22705078 -16.13623047 7.22705078 -20.13623047 7.22705078 C-20.13623047 7.88705078 -20.13623047 8.54705078 -20.13623047 9.22705078 C-20.71630859 9.38560547 -21.29638672 9.54416016 -21.89404297 9.70751953 C-27.41181734 11.35556765 -30.957768 13.26286844 -35.13623047 17.22705078 C-35.13623047 14.22705078 -35.13623047 14.22705078 -32.38623047 11.41455078 C-22.83668889 3.61543434 -12.14161938 -0.09272427 0 0 Z " fill="#A3673A" transform="translate(330.13623046875,54.77294921875)"/>
<path d="M0 0 C1.79244141 0.01740234 1.79244141 0.01740234 3.62109375 0.03515625 C5.41740234 0.04869141 5.41740234 0.04869141 7.25 0.0625 C8.17683594 0.07410156 9.10367188 0.08570312 10.05859375 0.09765625 C10.05859375 0.42765625 10.05859375 0.75765625 10.05859375 1.09765625 C3.86131256 2.62157785 -2.12967296 3.33547231 -8.48168945 3.64428711 C-9.3085365 3.68582633 -10.13538355 3.72736555 -10.98728657 3.77016354 C-20.81600027 4.23067094 -30.64661496 4.32661374 -40.484375 4.4140625 C-42.47504535 4.43470471 -44.46571205 4.45570264 -46.45637512 4.47703552 C-51.62642397 4.5315078 -56.79650725 4.58123812 -61.96661377 4.62988281 C-67.27009037 4.68065436 -72.57351867 4.73604602 -77.87695312 4.79101562 C-88.2317293 4.89767768 -98.58654792 4.99931582 -108.94140625 5.09765625 C-108.94140625 7.07765625 -108.94140625 9.05765625 -108.94140625 11.09765625 C-109.60140625 10.76765625 -110.26140625 10.43765625 -110.94140625 10.09765625 C-110.98394981 8.09810879 -110.98221408 6.09723989 -110.94140625 4.09765625 C-109.39968992 2.55593992 -107.95283434 2.94274548 -105.80371094 2.90820312 C-104.9118811 2.89144531 -104.02005127 2.8746875 -103.10119629 2.85742188 C-102.11518433 2.84388672 -101.12917236 2.83035156 -100.11328125 2.81640625 C-99.08086304 2.79835937 -98.04844482 2.7803125 -96.98474121 2.76171875 C-94.73502153 2.72301533 -92.48526202 2.68657852 -90.23547363 2.65209961 C-86.68130449 2.59750107 -83.12728459 2.53688235 -79.57324219 2.47460938 C-70.74539187 2.32120491 -61.91737554 2.17839197 -53.08935547 2.03515625 C-45.63570192 1.91381991 -38.18213489 1.78855716 -30.7286377 1.65795898 C-27.21595418 1.59807474 -23.7032104 1.54406914 -20.19042969 1.49023438 C-18.05012523 1.4534133 -15.90982545 1.41631902 -13.76953125 1.37890625 C-12.78351929 1.36537109 -11.79750732 1.35183594 -10.78161621 1.33789062 C-9.88978638 1.32113281 -8.99795654 1.304375 -8.07910156 1.28710938 C-6.9099118 1.26831726 -6.9099118 1.26831726 -5.71710205 1.24914551 C-3.02945805 1.01985556 -3.12057216 0.10360465 0 0 Z " fill="#898988" transform="translate(396.94140625,125.90234375)"/>
<path d="M0 0 C0.78597565 0.00561951 1.57195129 0.01123901 2.38174438 0.01702881 C3.20959946 0.01513046 4.03745453 0.01323212 4.89039612 0.01127625 C7.63801429 0.00756007 10.38537022 0.01828899 13.13296509 0.02947998 C15.04147816 0.03067199 16.94999182 0.0311249 18.85850525 0.03086853 C22.86596328 0.03243513 26.87333221 0.04073481 30.88076782 0.05413818 C36.00751255 0.07107085 41.13415874 0.07495418 46.26092815 0.074193 C50.20640497 0.07446564 54.15186041 0.07996285 58.09733009 0.08719444 C59.98669078 0.09036901 61.87605389 0.09234568 63.7654171 0.09308815 C66.41491135 0.09526785 69.0643035 0.10404871 71.71377563 0.11468506 C72.87755737 0.11400528 72.87755737 0.11400528 74.06484985 0.11331177 C78.59833784 0.13978574 82.89733224 0.51766867 87.37124634 1.25994873 C87.86624634 3.23994873 87.86624634 3.23994873 88.37124634 5.25994873 C87.51149153 4.78406516 87.51149153 4.78406516 86.63436794 4.29856777 C80.64905368 1.55171522 73.20862908 2.11510773 66.7303772 2.14642334 C65.5140863 2.1462043 65.5140863 2.1462043 64.27322388 2.14598083 C61.62748415 2.14667032 58.98181731 2.15441691 56.33609009 2.16229248 C54.4880731 2.1641601 52.64005562 2.16558238 50.79203796 2.1665802 C45.95388394 2.17037833 41.11576046 2.18018523 36.27761841 2.19128418 C31.33031629 2.20155673 26.38300919 2.20609029 21.43569946 2.21112061 C11.74753508 2.22181018 2.05939326 2.23885375 -7.62875366 2.25994873 C-5.08560441 -0.28320052 -3.46791609 0.02030873 0 0 Z " fill="#E78842" transform="translate(327.6287536621094,56.74005126953125)"/>
<path d="M0 0 C0 1.98 0 3.96 0 6 C-0.66 6.33 -1.32 6.66 -2 7 C-2 5.68 -2 4.36 -2 3 C-15.10913614 2.93032686 -28.21822783 2.87710088 -41.32751179 2.84456348 C-47.41542946 2.82894301 -53.50321996 2.80777087 -59.59106445 2.77368164 C-65.47198414 2.74095916 -71.35278189 2.7231198 -77.23378563 2.71536827 C-79.47153834 2.70984786 -81.70928478 2.69906811 -83.94698524 2.68280983 C-87.0941139 2.66086435 -90.24074595 2.65804022 -93.38793945 2.65942383 C-94.30216675 2.648638 -95.21639404 2.63785217 -96.1583252 2.6267395 C-102.81485045 2.65817133 -108.66590958 3.99283539 -115 6 C-115 5.34 -115 4.68 -115 4 C-108.30967701 1.6774219 -102.37126405 0.55550255 -95.30273438 0.56762695 C-94.39074783 0.5574353 -93.47876129 0.54724365 -92.53913879 0.53674316 C-89.55727813 0.50682179 -86.57574059 0.49737305 -83.59375 0.48828125 C-81.50206468 0.4714055 -79.41038932 0.45325144 -77.31872559 0.43388367 C-71.83179876 0.38653596 -66.34491219 0.35664702 -60.85784912 0.33044434 C-55.29186773 0.30069975 -49.72603097 0.25403581 -44.16015625 0.20898438 C-36.00590153 0.14526957 -27.85165109 0.08831224 -19.69726562 0.04418945 C-18.86060867 0.03955185 -18.02395172 0.03491425 -17.16194153 0.03013611 C-11.44125865 0.00092043 -5.7207514 -0.00481289 0 0 Z " fill="#5F5F5F" transform="translate(188,129)"/>
<path d="M0 0 C2.06364124 0.00560869 4.12728653 0.00987276 6.19093323 0.01286316 C11.57161871 0.02421177 16.95205375 0.05359079 22.3326416 0.0869751 C27.84347142 0.11789354 33.35434246 0.13141462 38.86523438 0.14648438 C49.64073387 0.17847187 60.41604908 0.22954453 71.19140625 0.29296875 C71.19140625 0.62296875 71.19140625 0.95296875 71.19140625 1.29296875 C70.19963379 1.30327621 69.20786133 1.31358368 68.18603516 1.32420349 C58.77263473 1.4225811 49.35929102 1.52536668 39.94598389 1.63230801 C35.10821524 1.68713087 30.2704403 1.74047875 25.43261719 1.7902832 C20.75115502 1.8385351 16.069754 1.89088673 11.3883667 1.9459095 C9.6153112 1.96606162 7.84223914 1.9848138 6.06915283 2.00204277 C-2.48996461 2.08608296 -11.04159982 2.22242664 -19.58984375 2.68383789 C-21.4315918 2.7828817 -21.4315918 2.7828817 -23.31054688 2.88392639 C-28.76511016 3.52175302 -33.74118855 5.22953671 -38.80859375 7.29296875 C-38.19996643 5.40119934 -38.19996643 5.40119934 -36.80859375 3.29296875 C-25.34080956 -1.09369617 -12.04596518 -0.09727553 0 0 Z " fill="#533116" transform="translate(346.80859375,52.70703125)"/>
<path d="M0 0 C1.134375 0.020625 2.26875 0.04125 3.4375 0.0625 C2.4375 2.0625 2.4375 2.0625 0.65420151 2.67998409 C-1.62293035 3.07292791 -3.71957996 3.18551785 -6.02972412 3.18275452 C-7.36320137 3.18481651 -7.36320137 3.18481651 -8.72361755 3.18692017 C-9.691064 3.18332489 -10.65851044 3.17972961 -11.65527344 3.17602539 C-12.67998245 3.17617142 -13.70469147 3.17631744 -14.76045227 3.1764679 C-18.14761471 3.17577121 -21.53472217 3.16799015 -24.921875 3.16015625 C-27.27028371 3.15829121 -29.61869281 3.15686771 -31.96710205 3.15586853 C-38.14846877 3.15205016 -44.329812 3.14222564 -50.51116943 3.13116455 C-56.81864097 3.12093584 -63.12611631 3.11636778 -69.43359375 3.11132812 C-81.80990616 3.1006028 -94.18620112 3.0835345 -106.5625 3.0625 C-106.5625 2.7325 -106.5625 2.4025 -106.5625 2.0625 C-104.64903526 2.0470388 -104.64903526 2.0470388 -102.69691467 2.03126526 C-90.70351797 1.93371384 -78.71017526 1.83099759 -66.71686649 1.72316074 C-60.55027663 1.6678821 -54.38368206 1.61445434 -48.21704102 1.56518555 C-42.27129777 1.51761471 -36.32561425 1.46527483 -30.37994194 1.40955925 C-28.10604772 1.38910259 -25.83213711 1.37039513 -23.55821419 1.35342598 C-20.38518437 1.32945501 -17.21226864 1.29939083 -14.03930664 1.26782227 C-13.08912659 1.2620668 -12.13894653 1.25631134 -11.15997314 1.25038147 C-7.01406534 1.20317036 -3.88459581 0.0681508 0 0 Z " fill="#C27C49" transform="translate(396.5625,80.9375)"/>
<path d="M0 0 C32.67 0 65.34 0 99 0 C97.875 5.625 97.875 5.625 95 8 C95.33 6.02 95.66 4.04 96 2 C64.32 1.67 32.64 1.34 0 1 C0 0.67 0 0.34 0 0 Z " fill="#D28449" transform="translate(322,56)"/>
<path d="M0 0 C-3.74412843 3.39583741 -5.9080082 5.2725726 -11 6 C-11.33 6.66 -11.66 7.32 -12 8 C-12.721875 8.391875 -13.44375 8.78375 -14.1875 9.1875 C-18.68204795 12.08398646 -22.29660807 15.88982421 -24 21 C-21.03 21 -18.06 21 -15 21 C-15 21.33 -15 21.66 -15 22 C-16.64574566 22.02688151 -18.29161413 22.04634123 -19.9375 22.0625 C-20.85402344 22.07410156 -21.77054687 22.08570312 -22.71484375 22.09765625 C-25 22 -25 22 -26 21 C-26 14.125 -26 14.125 -23.40625 11.20703125 C-22.16496239 10.17686428 -20.89437924 9.18071264 -19.59375 8.2265625 C-17.85455832 7.07250028 -17.85455832 7.07250028 -17 5 C-14.67843403 4.59270772 -12.3431213 4.25561323 -10 4 C-10 3.34 -10 2.68 -10 2 C-8.71211992 1.46987262 -7.41953322 0.9511671 -6.125 0.4375 C-5.40570313 0.14746094 -4.68640625 -0.14257812 -3.9453125 -0.44140625 C-2 -1 -2 -1 0 0 Z " fill="#E68A40" transform="translate(320,60)"/>
<path d="M0 0 C2.70740662 2.70740662 3.1010554 5.2626766 4.125 8.9375 C4.47820312 10.18402344 4.83140625 11.43054688 5.1953125 12.71484375 C6 16 6 16 6 19 C-14.13 19 -34.26 19 -55 19 C-55 18.67 -55 18.34 -55 18 C-35.86 18 -16.72 18 3 18 C2.34 14.04 1.68 10.08 1 6 C0.505 3.03 0.505 3.03 0 0 Z " fill="#585858" transform="translate(470,187)"/>
<path d="M0 0 C2.31081362 5.97323519 -1.61474087 12.48248708 -4 18 C-5.26522516 20.72510034 -6.60681801 23.40074565 -8 26.0625 C-8.31960693 26.6810083 -8.63921387 27.2995166 -8.96850586 27.93676758 C-11.18196957 32.01625536 -13.62271751 34.89829438 -17 38 C-16.67 36.35 -16.34 34.7 -16 33 C-15.34 33 -14.68 33 -14 33 C-11.60926555 29.17482487 -11.44033448 25.40334476 -11 21 C-10.01 20.67 -9.02 20.34 -8 20 C-8 18.68 -8 17.36 -8 16 C-7.01 16 -6.02 16 -5 16 C-4.07259994 12.39709182 -3.32949795 8.76800241 -2.59765625 5.12109375 C-2 3 -2 3 0 0 Z " fill="#777776" transform="translate(471,57)"/>
<path d="M0 0 C-4.13312472 3.24745514 -6.63932628 5 -12 5 C-12 5.66 -12 6.32 -12 7 C-12.87011719 7.23783203 -12.87011719 7.23783203 -13.7578125 7.48046875 C-19.27558687 9.12851687 -22.82153753 11.03581766 -27 15 C-27 12 -27 12 -24.25 9.1875 C-17.13141054 3.42620752 -9.31310804 -1.07458939 0 0 Z " fill="#B87642" transform="translate(322,57)"/>
<path d="M0 0 C0.99 0 1.98 0 3 0 C2.91689058 2.8257202 2.40452306 4.54544382 0.515625 6.66796875 C-4.30002969 11 -4.30002969 11 -9 11 C-9.66 12.32 -10.32 13.64 -11 15 C-12.32 14.67 -13.64 14.34 -15 14 C-7.39196761 7.29952477 -7.39196761 7.29952477 -3.5625 4.1875 C-0.96768028 2.26028607 -0.96768028 2.26028607 0 0 Z " fill="#4A301A" transform="translate(419,65)"/>
<path d="M0 0 C0.99 0 1.98 0 3 0 C0.85882353 6.09411765 0.85882353 6.09411765 -2 8 C-4.67992702 8.54659898 -7.26328507 8.7756791 -10 9 C-10.12375 9.639375 -10.2475 10.27875 -10.375 10.9375 C-10.58125 11.618125 -10.7875 12.29875 -11 13 C-13.64458379 14.32229189 -15.67761301 14.09677194 -18.625 14.0625 C-19.62789063 14.05347656 -20.63078125 14.04445313 -21.6640625 14.03515625 C-22.43492187 14.02355469 -23.20578125 14.01195313 -24 14 C-24 13.67 -24 13.34 -24 13 C-23.09507812 12.96132812 -23.09507812 12.96132812 -22.171875 12.921875 C-16.94728665 12.64110955 -16.94728665 12.64110955 -12.625 9.9375 C-12.08875 9.298125 -11.5525 8.65875 -11 8 C-10.01 8 -9.02 8 -8 8 C-8 7.34 -8 6.68 -8 6 C-7.34 6 -6.68 6 -6 6 C-6 5.34 -6 4.68 -6 4 C-5.195625 3.71125 -4.39125 3.4225 -3.5625 3.125 C-0.8673532 2.26737432 -0.8673532 2.26737432 0 0 Z " fill="#412D1C" transform="translate(410,76)"/>
<path d="M0 0 C-2.85694264 3.01566168 -5.22712034 5.2850547 -9 7 C-13.27195695 9.52830105 -15.76967079 11.53934157 -18 16 C-18.33 16.66 -18.66 17.32 -19 18 C-19.66 18 -20.32 18 -21 18 C-19.71240381 11.72296859 -15.67228074 7.18742141 -11 3 C-8.8046875 2.36328125 -8.8046875 2.36328125 -7 2 C-6.67 1.34 -6.34 0.68 -6 0 C-3 -1 -3 -1 0 0 Z " fill="#3B2F23" transform="translate(309,56)"/>
<path d="M0 0 C4.75 1.875 4.75 1.875 7 3 C5.38405168 5.04119788 3.7143618 7.04072937 2 9 C1.34 9 0.68 9 0 9 C-0.33 9.99 -0.66 10.98 -1 12 C-2.62890625 13.38671875 -2.62890625 13.38671875 -4.5625 14.6875 C-5.52349609 15.34298828 -5.52349609 15.34298828 -6.50390625 16.01171875 C-7.24447266 16.50091797 -7.24447266 16.50091797 -8 17 C-8.33 15.35 -8.66 13.7 -9 12 C-5.91190305 10.23537317 -4.76687864 10 -1 10 C-1 9.34 -1 8.68 -1 8 C-0.34 8 0.32 8 1 8 C0.67 5.36 0.34 2.72 0 0 Z " fill="#545453" transform="translate(212,168)"/>
<path d="M0 0 C2.31 0.33 4.62 0.66 7 1 C7 1.66 7 2.32 7 3 C8.093125 3.13277344 9.18625 3.26554687 10.3125 3.40234375 C15.55104783 4.05716223 20.77483463 4.80935547 26 5.5625 C26.96550781 5.70107422 27.93101563 5.83964844 28.92578125 5.98242188 C31.28394751 6.3209705 33.64201713 6.66017682 36 7 C36 7.33 36 7.66 36 8 C23.72127278 8.62788946 10.70437267 7.46722515 0 1 C0 0.67 0 0.34 0 0 Z " fill="#8D8D8D" transform="translate(17,46)"/>
<path d="M0 0 C-6.89715536 6.86214442 -6.89715536 6.86214442 -11.5 7.4375 C-12.325 7.293125 -13.15 7.14875 -14 7 C-13.34 6.67 -12.68 6.34 -12 6 C-11.34444881 3.47266765 -11.34444881 3.47266765 -11 1 C-4.03571429 -1.27678571 -4.03571429 -1.27678571 0 0 Z " fill="#D38449" transform="translate(410,74)"/>
<path d="M0 0 C0 0.66 0 1.32 0 2 C-0.66 2 -1.32 2 -2 2 C-2 2.66 -2 3.32 -2 4 C-3.175625 4.12375 -3.175625 4.12375 -4.375 4.25 C-5.674375 4.62125 -5.674375 4.62125 -7 5 C-7.66 6.32 -8.32 7.64 -9 9 C-12.63 9 -16.26 9 -20 9 C-20 8.34 -20 7.68 -20 7 C-16.7 6.67 -13.4 6.34 -10 6 C-9.67 5.01 -9.34 4.02 -9 3 C-2.88888889 0 -2.88888889 0 0 0 Z " fill="#50331B" transform="translate(404,80)"/>
<path d="M0 0 C0 0.99 0 1.98 0 3 C-0.928125 3.680625 -1.85625 4.36125 -2.8125 5.0625 C-7.11117435 8.35510163 -7.87373101 12.91203042 -9 18 C-9.99 18 -10.98 18 -12 18 C-11.59670697 11.27844953 -9.16753087 7.82549702 -4.3359375 3.515625 C-2.9137135 2.31583413 -1.4595652 1.15407481 0 0 Z " fill="#C78249" transform="translate(302,65)"/>
<path d="M0 0 C0.33 0 0.66 0 1 0 C0.40711812 7.34164374 -0.238212 14.67386859 -1 22 C-1.66 22 -2.32 22 -3 22 C-3.33 22.66 -3.66 23.32 -4 24 C-4.042721 22.33388095 -4.04063832 20.66617115 -4 19 C-3.67 18.67 -3.34 18.34 -3 18 C-3.00589823 16.10371802 -3.05507375 14.20750144 -3.125 12.3125 C-3.18541749 7.24347256 -2.80058176 4.20087264 0 0 Z " fill="#4E4E4C" transform="translate(474,35)"/>
<path d="M0 0 C1.23363281 0.01353516 1.23363281 0.01353516 2.4921875 0.02734375 C4.49492083 0.05063135 6.49750154 0.08649041 8.5 0.125 C8.5 0.455 8.5 0.785 8.5 1.125 C6.97632813 1.16367187 6.97632813 1.16367187 5.421875 1.203125 C-3.50301097 1.53476367 -11.13333647 2.71811996 -19.5 6.125 C-19 4.25 -19 4.25 -17.5 2.125 C-11.63160435 0.06067498 -6.17059617 -0.1306478 0 0 Z " fill="#663C1B" transform="translate(327.5,53.875)"/>
<path d="M0 0 C1.2065625 0.0309375 1.2065625 0.0309375 2.4375 0.0625 C2.4375 0.7225 2.4375 1.3825 2.4375 2.0625 C5.0775 2.3925 7.7175 2.7225 10.4375 3.0625 C10.4375 3.7225 10.4375 4.3825 10.4375 5.0625 C2.8475 4.4025 -4.7425 3.7425 -12.5625 3.0625 C-12.5625 2.7325 -12.5625 2.4025 -12.5625 2.0625 C-11.60537109 1.97162109 -11.60537109 1.97162109 -10.62890625 1.87890625 C-9.38947266 1.75322266 -9.38947266 1.75322266 -8.125 1.625 C-7.30128906 1.54378906 -6.47757812 1.46257813 -5.62890625 1.37890625 C-2.92478859 0.96485421 -2.90505598 0.07085502 0 0 Z " fill="#3D3125" transform="translate(411.5625,48.9375)"/>
<path d="M0 0 C0.99 0.33 1.98 0.66 3 1 C3 1.99 3 2.98 3 4 C3.99 3.67 4.98 3.34 6 3 C7 4 7 4 7.0625 6.5625 C7.041875 7.366875 7.02125 8.17125 7 9 C8.32 8.67 9.64 8.34 11 8 C10.67 9.65 10.34 11.3 10 13 C5.73407468 9.70360316 2.74039221 6.74298651 0 2 C0 1.34 0 0.68 0 0 Z " fill="#5F5F5F" transform="translate(249,163)"/>
<path d="M0 0 C0.33 0.66 0.66 1.32 1 2 C0.67 2.99 0.34 3.98 0 5 C-3.63 5.66 -7.26 6.32 -11 7 C-9 3 -9 3 -6.0625 1.8125 C-5.051875 1.544375 -4.04125 1.27625 -3 1 C-2.01 0.67 -1.02 0.34 0 0 Z " fill="#E7893F" transform="translate(411,68)"/>
<path d="M0 0 C1.72251754 4.0845326 0.07280563 7.36973696 -1.4375 11.25 C-1.68048828 11.8996875 -1.92347656 12.549375 -2.17382812 13.21875 C-2.77285994 14.81616817 -3.38514321 16.40860594 -4 18 C-4.33 18 -4.66 18 -5 18 C-5.20716286 14.27106848 -4.7261971 12.26059452 -3 9 C-2.31744011 6.67126625 -1.64949225 4.33817209 -1 2 C-0.67 1.34 -0.34 0.68 0 0 Z " fill="#8F8F8F" transform="translate(471,57)"/>
<path d="M0 0 C1.65 0 3.3 0 5 0 C2.62202997 2.62828266 0.04670659 4.216562 -3 6 C-4.34631825 6.98244845 -5.68441297 7.97676564 -7 9 C-7 8.01 -7 7.02 -7 6 C-6.34 6 -5.68 6 -5 6 C-5 5.01 -5 4.02 -5 3 C-3.35 2.34 -1.7 1.68 0 1 C0 0.67 0 0.34 0 0 Z " fill="#603A18" transform="translate(303,60)"/>
<path d="M0 0 C3.85714286 3.85714286 3.85714286 3.85714286 5 7 C4.625 9.25 4.625 9.25 4 11 C4 10.34 4 9.68 4 9 C3.01 9 2.02 9 1 9 C0.67 6.03 0.34 3.06 0 0 Z " fill="#6E6E6E" transform="translate(465,176)"/>
<path d="M0 0 C0.22786458 2.01822917 0.45572917 4.03645833 0.68359375 6.0546875 C0.91292961 8.07404316 0.91292961 8.07404316 2 10 C0.68 9.67 -0.64 9.34 -2 9 C-2.33 6.36 -2.66 3.72 -3 1 C-1 0 -1 0 0 0 Z " fill="#3D2F21" transform="translate(287,77)"/>
<path d="M0 0 C12.53488372 1.53488372 12.53488372 1.53488372 16 5 C10.34979382 4.39891424 5.33835539 2.92471317 0 1 C0 0.67 0 0.34 0 0 Z " fill="#767575" transform="translate(292,198)"/>
<path d="M0 0 C1.134375 0.020625 2.26875 0.04125 3.4375 0.0625 C2.4375 2.0625 2.4375 2.0625 0.734375 2.68359375 C-1.98414845 3.13205765 -4.55807077 3.15779082 -7.3125 3.125 C-8.29734375 3.11597656 -9.2821875 3.10695313 -10.296875 3.09765625 C-11.04453125 3.08605469 -11.7921875 3.07445313 -12.5625 3.0625 C-12.5625 2.7325 -12.5625 2.4025 -12.5625 2.0625 C-10.51171875 1.83463542 -8.4609375 1.60677083 -6.41015625 1.37890625 C-3.20046765 0.82925556 -4.00105232 0.0701939 0 0 Z " fill="#B57846" transform="translate(396.5625,80.9375)"/>
<path d="M0 0 C2.31 0 4.62 0 7 0 C6.50168276 3.68754757 5.89932357 5.60490662 3 8 C3.33 6.02 3.66 4.04 4 2 C2.68 1.34 1.36 0.68 0 0 Z " fill="#CD8958" transform="translate(414,56)"/>
<path d="M0 0 C2.31 0.33 4.62 0.66 7 1 C7 1.66 7 2.32 7 3 C9.64 3.33 12.28 3.66 15 4 C15 4.33 15 4.66 15 5 C8.92671312 5.50610724 5.22771463 4.04157942 0 1 C0 0.67 0 0.34 0 0 Z " fill="#6D6D6D" transform="translate(17,46)"/>
<path d="M0 0 C0.33 1.32 0.66 2.64 1 4 C0.01 4.495 0.01 4.495 -1 5 C-1.28875 5.639375 -1.5775 6.27875 -1.875 6.9375 C-3.22909764 9.42001234 -4.42178493 9.96871397 -7 11 C-5.5140084 6.40693504 -3.14985318 3.56430755 0 0 Z " fill="#737373" transform="translate(261,39)"/>
<path d="M0 0 C-3 2 -3 2 -5.48046875 1.7578125 C-6.37378906 1.54898438 -7.26710938 1.34015625 -8.1875 1.125 C-9.08855469 0.92132813 -9.98960937 0.71765625 -10.91796875 0.5078125 C-11.60503906 0.34023437 -12.29210937 0.17265625 -13 0 C-12.3915625 -0.15082031 -11.783125 -0.30164063 -11.15625 -0.45703125 C-9.59948483 -0.84904277 -8.0478998 -1.26182755 -6.5 -1.6875 C-3.60892503 -2.04888437 -2.4264363 -1.52775619 0 0 Z " fill="#464543" transform="translate(301,197)"/>
<path d="M0 0 C0 3.66842255 -0.79029126 5.10451959 -3 8 C-5.6875 8.8125 -5.6875 8.8125 -8 9 C-7.04270084 7.87411986 -6.08412105 6.7493285 -5.125 5.625 C-4.59132812 4.99851563 -4.05765625 4.37203125 -3.5078125 3.7265625 C-2.38567993 2.44163349 -1.20628025 1.20628025 0 0 Z " fill="#747474" transform="translate(182,142)"/>
<path d="M0 0 C0.33 0 0.66 0 1 0 C0.67 2.97 0.34 5.94 0 9 C-0.99 9 -1.98 9 -3 9 C-2.44271087 5.65626525 -1.64826111 2.96687001 0 0 Z " fill="#696969" transform="translate(11,136)"/>
<path d="M0 0 C0.99 0.33 1.98 0.66 3 1 C1.85546875 2.48828125 1.85546875 2.48828125 0 4 C-2.69921875 4.29296875 -2.69921875 4.29296875 -5.6875 4.1875 C-6.68136719 4.16042969 -7.67523438 4.13335937 -8.69921875 4.10546875 C-9.45847656 4.07066406 -10.21773438 4.03585938 -11 4 C-11 3.67 -11 3.34 -11 3 C-10.37351562 2.95101562 -9.74703125 2.90203125 -9.1015625 2.8515625 C-8.28429687 2.77679688 -7.46703125 2.70203125 -6.625 2.625 C-5.81289063 2.55539063 -5.00078125 2.48578125 -4.1640625 2.4140625 C-1.79665809 2.17107412 -1.79665809 2.17107412 0 0 Z " fill="#3B3026" transform="translate(397,86)"/>
<path d="M0 0 C0.66 0.33 1.32 0.66 2 1 C0.02 3.97 0.02 3.97 -2 7 C-3.32 6.67 -4.64 6.34 -6 6 C-4.02 4.02 -2.04 2.04 0 0 Z " fill="#7A4620" transform="translate(410,73)"/>
<path d="M0 0 C0.99 0 1.98 0 3 0 C2.67 2.31 2.34 4.62 2 7 C1.01 7 0.02 7 -1 7 C-0.67 4.69 -0.34 2.38 0 0 Z " fill="#C98A54" transform="translate(291,76)"/>
<path d="M0 0 C2.97 0.495 2.97 0.495 6 1 C3.06171403 3.50298434 0.82097239 4.46930939 -3 5 C-3 4.34 -3 3.68 -3 3 C-2.01 3 -1.02 3 0 3 C0 2.01 0 1.02 0 0 Z " fill="#5B5B59" transform="translate(180,195)"/>
<path d="M0 0 C-3.96 1.98 -3.96 1.98 -8 4 C-8 3.01 -8 2.02 -8 1 C-4.59449725 -1.06762667 -4.18836538 -1.04709135 0 0 Z " fill="#5A3415" transform="translate(317,56)"/>
<path d="M0 0 C0.99 0.33 1.98 0.66 3 1 C3 1.99 3 2.98 3 4 C-0.96 4 -4.92 4 -9 4 C-9 3.67 -9 3.34 -9 3 C-6.03 3 -3.06 3 0 3 C0 2.01 0 1.02 0 0 Z " fill="#545454" transform="translate(473,202)"/>
<path d="M0 0 C4.51478398 0.53115106 7.34666857 2.36620292 11 5 C10.01 5.495 10.01 5.495 9 6 C6.375 5.0625 6.375 5.0625 4 4 C4 3.34 4 2.68 4 2 C2.68 1.34 1.36 0.68 0 0 Z " fill="#666666" transform="translate(451,166)"/>
<path d="M0 0 C0 0.66 0 1.32 0 2 C-0.66 2 -1.32 2 -2 2 C-2.103125 2.639375 -2.20625 3.27875 -2.3125 3.9375 C-2.539375 4.618125 -2.76625 5.29875 -3 6 C-3.99 6.33 -4.98 6.66 -6 7 C-5.37162381 3.35541809 -4.14650034 0 0 0 Z " fill="#4C2A13" transform="translate(298,64)"/>
<path d="M0 0 C0.99 0.33 1.98 0.66 3 1 C3 3.31 3 5.62 3 8 C0.9375 6.25 0.9375 6.25 -1 4 C-0.75 1.75 -0.75 1.75 0 0 Z " fill="#6F6F6E" transform="translate(236,133)"/>
<path d="M0 0 C0.33 1.32 0.66 2.64 1 4 C-1.97 6.475 -1.97 6.475 -5 9 C-3.50163895 5.88801935 -1.80066242 2.9465385 0 0 Z " fill="#8F572B" transform="translate(418,63)"/>
<path d="M0 0 C0.66 0.99 1.32 1.98 2 3 C0.35 4.65 -1.3 6.3 -3 8 C-2.25 2.25 -2.25 2.25 0 0 Z " fill="#CE8346" transform="translate(414,65)"/>
</svg>
